{
    "asset" : {
        "generator" : "Khronos glTF Blender I/O v1.4.40",
        "version" : "2.0"
    },
    "scene" : 0,
    "scenes" : [
        {
            "name" : "Scene",
            "nodes" : [
                0,
                1,
                2,
                3,
                4,
                5,
                6,
                7,
                8,
                9
            ]
        }
    ],
    "nodes" : [
        {
            "name" : "Camera",
            "rotation" : [
                0.42237362265586853,
                -0.38688457012176514,
                0.20113487541675568,
                0.7946481108665466
            ],
            "translation" : [
                -7.654484748840332,
                8.14352035522461,
                9.514114379882812
            ]
        },
        {
            "name" : "Area",
            "rotation" : [
                0.12497145682573318,
                -0.8870681524276733,
                -0.18080638349056244,
                0.40595725178718567
            ],
            "scale" : [
                0.47918999195098877,
                0.47918999195098877,
                0.47918999195098877
            ],
            "translation" : [
                -2.4347784519195557,
                36.05988311767578,
                14.219865798950195
            ]
        },
        {
            "name" : "Point",
            "translation" : [
                -1.5480682849884033,
                4.0132060050964355,
                -0.8426173329353333
            ]
        },
        {
            "name" : "Point.001",
            "translation" : [
                2.231675624847412,
                3.482827663421631,
                1.9145021438598633
            ]
        },
        {
            "name" : "Area.001",
            "rotation" : [
                0.479879766702652,
                -0.5218850374221802,
                -0.4874165654182434,
                0.5096829533576965
            ],
            "scale" : [
                0.8328368067741394,
                0.8328368663787842,
                0.8328367471694946
            ],
            "translation" : [
                1.7065160274505615,
                24.57428741455078,
                -2.9386987686157227
            ]
        },
        {
            "mesh" : 0,
            "name" : "logo",
            "rotation" : [
                0.2853894829750061,
                0,
                0,
                0.9584116339683533
            ],
            "scale" : [
                0.1825924813747406,
                0.1825924813747406,
                0.1825924813747406
            ],
            "translation" : [
                0,
                2.0282461643218994,
                0.283029168844223
            ]
        },
        {
            "mesh" : 1,
            "name" : "bottle cap",
            "scale" : [
                1.3590658903121948,
                0.8120090365409851,
                1.3590658903121948
            ],
            "translation" : [
                -0.004320976324379444,
                1.3635220527648926,
                0.0019640803802758455
            ]
        },
        {
            "mesh" : 2,
            "name" : "bottle",
            "scale" : [
                0.11708295345306396,
                0.11708295345306396,
                0.11708295345306396
            ],
            "translation" : [
                -0.004396319389343262,
                1.309601068496704,
                0.0023270845413208008
            ]
        },
        {
            "mesh" : 3,
            "name" : "bottle liquid",
            "scale" : [
                0.10890361666679382,
                0.10890361666679382,
                0.10890361666679382
            ],
            "translation" : [
                -0.004396320320665836,
                1.1191574335098267,
                0.0023270815145224333
            ]
        },
        {
            "mesh" : 4,
            "name" : "bottle label",
            "rotation" : [
                0,
                0.16457436978816986,
                0,
                0.9863647818565369
            ],
            "scale" : [
                1.170026183128357,
                0.7481521368026733,
                1.170026183128357
            ],
            "translation" : [
                -0.05926496535539627,
                1.0200616121292114,
                -0.12462271004915237
            ]
        }
    ],
    "animations" : [
        {
            "channels" : [
                {
                    "sampler" : 0,
                    "target" : {
                        "node" : 0,
                        "path" : "translation"
                    }
                },
                {
                    "sampler" : 1,
                    "target" : {
                        "node" : 0,
                        "path" : "rotation"
                    }
                },
                {
                    "sampler" : 2,
                    "target" : {
                        "node" : 0,
                        "path" : "scale"
                    }
                }
            ],
            "name" : "CameraAction",
            "samplers" : [
                {
                    "input" : 20,
                    "interpolation" : "LINEAR",
                    "output" : 21
                },
                {
                    "input" : 20,
                    "interpolation" : "LINEAR",
                    "output" : 22
                },
                {
                    "input" : 20,
                    "interpolation" : "LINEAR",
                    "output" : 23
                }
            ]
        }
    ],
    "materials" : [
        {
            "doubleSided" : true,
            "name" : "Material.001",
            "pbrMetallicRoughness" : {}
        },
        {
            "doubleSided" : true,
            "name" : "white plastic",
            "pbrMetallicRoughness" : {
                "baseColorFactor" : [
                    0.800000011920929,
                    0.800000011920929,
                    0.800000011920929,
                    1
                ],
                "metallicFactor" : 0,
                "roughnessFactor" : 0.5
            }
        },
        {
            "doubleSided" : true,
            "emissiveFactor" : [
                0,
                0.10540404170751572,
                0.3129569888114929
            ],
            "name" : "Material.003",
            "pbrMetallicRoughness" : {
                "baseColorFactor" : [
                    0,
                    0.1666121780872345,
                    0.4991225004196167,
                    0.699999988079071
                ],
                "metallicFactor" : 0,
                "roughnessFactor" : 0
            }
        },
        {
            "doubleSided" : true,
            "name" : "Material",
            "pbrMetallicRoughness" : {
                "baseColorTexture" : {
                    "index" : 0,
                    "texCoord" : 0
                },
                "metallicFactor" : 0,
                "roughnessFactor" : 0.4000000059604645
            }
        }
    ],
    "meshes" : [
        {
            "name" : "logo",
            "primitives" : [
                {
                    "attributes" : {
                        "POSITION" : 0,
                        "NORMAL" : 1,
                        "TEXCOORD_0" : 2
                    },
                    "indices" : 3,
                    "material" : 0
                }
            ]
        },
        {
            "name" : "Cylinder.002",
            "primitives" : [
                {
                    "attributes" : {
                        "POSITION" : 4,
                        "NORMAL" : 5,
                        "TEXCOORD_0" : 6
                    },
                    "indices" : 7,
                    "material" : 1
                }
            ]
        },
        {
            "name" : "Circle.001",
            "primitives" : [
                {
                    "attributes" : {
                        "POSITION" : 8,
                        "NORMAL" : 9,
                        "TEXCOORD_0" : 10
                    },
                    "indices" : 11,
                    "material" : 0
                }
            ]
        },
        {
            "name" : "Circle.002",
            "primitives" : [
                {
                    "attributes" : {
                        "POSITION" : 12,
                        "NORMAL" : 13,
                        "TEXCOORD_0" : 14
                    },
                    "indices" : 15,
                    "material" : 2
                }
            ]
        },
        {
            "name" : "Cube.001",
            "primitives" : [
                {
                    "attributes" : {
                        "POSITION" : 16,
                        "NORMAL" : 17,
                        "TEXCOORD_0" : 18
                    },
                    "indices" : 19,
                    "material" : 3
                }
            ]
        }
    ],
    "textures" : [
        {
            "sampler" : 0,
            "source" : 0
        }
    ],
    "images" : [
        {
            "mimeType" : "image/jpeg",
            "name" : "clearex-500",
            "uri" : "clearex-500.jpg"
        }
    ],
    "accessors" : [
        {
            "bufferView" : 0,
            "componentType" : 5126,
            "count" : 47011,
            "max" : [
                0.5063680410385132,
                -0.1456524133682251,
                0.33121874928474426
            ],
            "min" : [
                -0.5680766701698303,
                -0.22380244731903076,
                -0.22123593091964722
            ],
            "type" : "VEC3"
        },
        {
            "bufferView" : 1,
            "componentType" : 5126,
            "count" : 47011,
            "type" : "VEC3"
        },
        {
            "bufferView" : 2,
            "componentType" : 5126,
            "count" : 47011,
            "type" : "VEC2"
        },
        {
            "bufferView" : 3,
            "componentType" : 5123,
            "count" : 57132,
            "type" : "SCALAR"
        },
        {
            "bufferView" : 4,
            "componentType" : 5126,
            "count" : 1999,
            "max" : [
                0.12374075502157211,
                0.9955976605415344,
                0.12374073266983032
            ],
            "min" : [
                -0.12374080717563629,
                0.8494961857795715,
                -0.12374080717563629
            ],
            "type" : "VEC3"
        },
        {
            "bufferView" : 5,
            "componentType" : 5126,
            "count" : 1999,
            "type" : "VEC3"
        },
        {
            "bufferView" : 6,
            "componentType" : 5126,
            "count" : 1999,
            "type" : "VEC2"
        },
        {
            "bufferView" : 7,
            "componentType" : 5123,
            "count" : 7104,
            "type" : "SCALAR"
        },
        {
            "bufferView" : 8,
            "componentType" : 5126,
            "count" : 5568,
            "max" : [
                3.387726068496704,
                7.054810523986816,
                3.387726068496704
            ],
            "min" : [
                -3.387726306915283,
                -11.024787902832031,
                -3.387726068496704
            ],
            "type" : "VEC3"
        },
        {
            "bufferView" : 9,
            "componentType" : 5126,
            "count" : 5568,
            "type" : "VEC3"
        },
        {
            "bufferView" : 10,
            "componentType" : 5126,
            "count" : 5568,
            "type" : "VEC2"
        },
        {
            "bufferView" : 11,
            "componentType" : 5123,
            "count" : 28602,
            "type" : "SCALAR"
        },
        {
            "bufferView" : 12,
            "componentType" : 5126,
            "count" : 4352,
            "max" : [
                3.4843592643737793,
                8.440049171447754,
                3.4843592643737793
            ],
            "min" : [
                -3.4843595027923584,
                -10.074252128601074,
                -3.4843592643737793
            ],
            "type" : "VEC3"
        },
        {
            "bufferView" : 13,
            "componentType" : 5126,
            "count" : 4352,
            "type" : "VEC3"
        },
        {
            "bufferView" : 14,
            "componentType" : 5126,
            "count" : 4352,
            "type" : "VEC2"
        },
        {
            "bufferView" : 15,
            "componentType" : 5123,
            "count" : 22074,
            "type" : "SCALAR"
        },
        {
            "bufferView" : 16,
            "componentType" : 5126,
            "count" : 5896,
            "max" : [
                0.34551137685775757,
                0.9999668002128601,
                0.45420336723327637
            ],
            "min" : [
                -0.3271990418434143,
                -1.0000330209732056,
                -0.21473152935504913
            ],
            "type" : "VEC3"
        },
        {
            "bufferView" : 17,
            "componentType" : 5126,
            "count" : 5896,
            "type" : "VEC3"
        },
        {
            "bufferView" : 18,
            "componentType" : 5126,
            "count" : 5896,
            "type" : "VEC2"
        },
        {
            "bufferView" : 19,
            "componentType" : 5123,
            "count" : 34740,
            "type" : "SCALAR"
        },
        {
            "bufferView" : 20,
            "componentType" : 5126,
            "count" : 49,
            "max" : [
                2
            ],
            "min" : [
                0
            ],
            "type" : "SCALAR"
        },
        {
            "bufferView" : 21,
            "componentType" : 5126,
            "count" : 49,
            "type" : "VEC3"
        },
        {
            "bufferView" : 22,
            "componentType" : 5126,
            "count" : 49,
            "type" : "VEC4"
        },
        {
            "bufferView" : 23,
            "componentType" : 5126,
            "count" : 49,
            "type" : "VEC3"
        }
    ],
    "bufferViews" : [
        {
            "buffer" : 0,
            "byteLength" : 564132,
            "byteOffset" : 0
        },
        {
            "buffer" : 0,
            "byteLength" : 564132,
            "byteOffset" : 564132
        },
        {
            "buffer" : 0,
            "byteLength" : 376088,
            "byteOffset" : 1128264
        },
        {
            "buffer" : 0,
            "byteLength" : 114264,
            "byteOffset" : 1504352
        },
        {
            "buffer" : 0,
            "byteLength" : 23988,
            "byteOffset" : 1618616
        },
        {
            "buffer" : 0,
            "byteLength" : 23988,
            "byteOffset" : 1642604
        },
        {
            "buffer" : 0,
            "byteLength" : 15992,
            "byteOffset" : 1666592
        },
        {
            "buffer" : 0,
            "byteLength" : 14208,
            "byteOffset" : 1682584
        },
        {
            "buffer" : 0,
            "byteLength" : 66816,
            "byteOffset" : 1696792
        },
        {
            "buffer" : 0,
            "byteLength" : 66816,
            "byteOffset" : 1763608
        },
        {
            "buffer" : 0,
            "byteLength" : 44544,
            "byteOffset" : 1830424
        },
        {
            "buffer" : 0,
            "byteLength" : 57204,
            "byteOffset" : 1874968
        },
        {
            "buffer" : 0,
            "byteLength" : 52224,
            "byteOffset" : 1932172
        },
        {
            "buffer" : 0,
            "byteLength" : 52224,
            "byteOffset" : 1984396
        },
        {
            "buffer" : 0,
            "byteLength" : 34816,
            "byteOffset" : 2036620
        },
        {
            "buffer" : 0,
            "byteLength" : 44148,
            "byteOffset" : 2071436
        },
        {
            "buffer" : 0,
            "byteLength" : 70752,
            "byteOffset" : 2115584
        },
        {
            "buffer" : 0,
            "byteLength" : 70752,
            "byteOffset" : 2186336
        },
        {
            "buffer" : 0,
            "byteLength" : 47168,
            "byteOffset" : 2257088
        },
        {
            "buffer" : 0,
            "byteLength" : 69480,
            "byteOffset" : 2304256
        },
        {
            "buffer" : 0,
            "byteLength" : 196,
            "byteOffset" : 2373736
        },
        {
            "buffer" : 0,
            "byteLength" : 588,
            "byteOffset" : 2373932
        },
        {
            "buffer" : 0,
            "byteLength" : 784,
            "byteOffset" : 2374520
        },
        {
            "buffer" : 0,
            "byteLength" : 588,
            "byteOffset" : 2375304
        }
    ],
    "samplers" : [
        {
            "magFilter" : 9729,
            "minFilter" : 9986
        }
    ],
    "buffers" : [
        {
            "byteLength" : 2375892,
            "uri" : "Clearex-500-embedded.bin"
        }
    ]
}
